{"title":"Fifty.Dead.Men.Walking.2008.DVDRIP.XviD-ZEKTORM","uid":4978593,"size":745312820,"categoryP":"video","categoryS":"movies","magnet":"?xt=urn:btih:3e553a2cf65234111877855a568af00b31adaed0&amp;dn=Fifty.Dead.Men.Walking.2008.DVDRIP.XviD-ZEKTORM&amp;tr=udp%3A%2F%2Ftracker.openbittorrent.com%3A80&amp;tr=udp%3A%2F%2Fopen.demonii.com%3A1337&amp;tr=udp%3A%2F%2Ftracker.coppersurfer.tk%3A6969&amp;tr=udp%3A%2F%2Fexodus.desync.com%3A6969","seeders":1,"leechers":0,"uploader":"blowley","files":5,"time":1246140246,"description":"Title                            : Fifty Dead Men Walking\nYear                             : 2008\nGenre                            : Action | Thriller\niMDB URL                         : http://www.imdb.com/title/tt1097643/\nAwards                           : 5 wins\n\nComplete name                    : FDMW-ZEKTORM.avi\nFormat                           : AVI\nFile size                        : 701 MiB\nDuration                         : 1h 57mn\nOverall bit rate                 : 834 Kbps\nSubtitles                        : English, Portuguese (Format: VobSub)\nSource                           : DVD NTSC\n\nVideo\nFormat                           : MPEG-4 Visual\nFormat profile                   : Streaming Video@L1\nCodec ID                         : XVID\nCodec ID/Hint                    : XviD\nDuration                         : 1h 57mn\nBit rate                         : 715 Kbps\nWidth                            : 720 pixels\nHeight                           : 400 pixels\nDisplay aspect ratio             : 16/9\nFrame rate                       : 23.976 fps\nResolution                       : 24 bits\nColorimetry                      : 4:2:0\nScan type                        : Progressive\nBits/(Pixel*Frame)               : 0.104\nStream size                      : 602 MiB (86%)\nWriting library                  : XviD\n\nAudio\nFormat                           : MPEG Audio\nFormat version                   : Version 1\nFormat profile                   : Layer 3\nCodec ID                         : 55\nCodec ID/Hint                    : MP3\nDuration                         : 1h 57mn\nBit rate mode                    : Variable\nBit rate                         : 106 Kbps\nMinimum bit rate                 : 128 Kbps\nChannel(s)                       : 2 channels\nSampling rate                    : 48.0 KHz\nResolution                       : 16 bits\nStream size                      : 88.9 MiB (13%)\nWriting library                  : LAME3.98r\nEncoding settings                : ABR\n","torrent":{"xt":"urn:btih:3e553a2cf65234111877855a568af00b31adaed0","amp;dn":"Fifty.Dead.Men.Walking.2008.DVDRIP.XviD-ZEKTORM","amp;tr":["udp%3A%2F%2Ftracker.openbittorrent.com%3A80","udp%3A%2F%2Fopen.demonii.com%3A1337","udp%3A%2F%2Ftracker.coppersurfer.tk%3A6969","udp%3A%2F%2Fexodus.desync.com%3A6969"],"infoHash":"3e553a2cf65234111877855a568af00b31adaed0","infoHashBuffer":{"type":"Buffer","data":[62,85,58,44,246,82,52,17,24,119,133,90,86,138,240,11,49,173,174,208]},"announce":[],"urlList":[]}}